<?xml version="1.0" encoding="UTF-8" standalone="no"?>
<!-- Created with Inkscape (http://www.inkscape.org/) -->

<svg
   xmlns:osb="http://www.openswatchbook.org/uri/2009/osb"
   xmlns:dc="http://purl.org/dc/elements/1.1/"
   xmlns:cc="http://creativecommons.org/ns#"
   xmlns:rdf="http://www.w3.org/1999/02/22-rdf-syntax-ns#"
   xmlns:svg="http://www.w3.org/2000/svg"
   xmlns="http://www.w3.org/2000/svg"
   xmlns:sodipodi="http://sodipodi.sourceforge.net/DTD/sodipodi-0.dtd"
   xmlns:inkscape="http://www.inkscape.org/namespaces/inkscape"
   width="744.09448819"
   height="1052.3622047"
   id="svg2"
   version="1.1"
   inkscape:version="0.48.2 r9819"
   sodipodi:docname="circle anim.svg">
  <defs
     id="defs4">
    <linearGradient
       id="linearGradient4383"
       osb:paint="gradient">
      <stop
         style="stop-color:#716161;stop-opacity:1;"
         offset="0"
         id="stop4385" />
      <stop
         style="stop-color:#716161;stop-opacity:0;"
         offset="1"
         id="stop4387" />
    </linearGradient>
  </defs>
  <sodipodi:namedview
     id="base"
     pagecolor="#ffffff"
     bordercolor="#666666"
     borderopacity="1.0"
     inkscape:pageopacity="0.0"
     inkscape:pageshadow="2"
     inkscape:zoom="4"
     inkscape:cx="104.30465"
     inkscape:cy="-15.021246"
     inkscape:document-units="px"
     inkscape:current-layer="layer1"
     showgrid="true"
     inkscape:snap-bbox="true"
     inkscape:snap-bbox-midpoints="true"
     inkscape:snap-bbox-edge-midpoints="false"
     inkscape:bbox-paths="false"
     inkscape:snap-object-midpoints="true"
     inkscape:snap-nodes="true"
     inkscape:snap-center="true"
     showguides="true"
     inkscape:snap-global="false"
     inkscape:window-width="1920"
     inkscape:window-height="1057"
     inkscape:window-x="-9"
     inkscape:window-y="-9"
     inkscape:window-maximized="1">
    <inkscape:grid
       type="xygrid"
       id="grid3894" />
  </sodipodi:namedview>
  <metadata
     id="metadata7">
    <rdf:RDF>
      <cc:Work
         rdf:about="">
        <dc:format>image/svg+xml</dc:format>
        <dc:type
           rdf:resource="http://purl.org/dc/dcmitype/StillImage" />
        <dc:title></dc:title>
      </cc:Work>
    </rdf:RDF>
  </metadata>
  <g
     inkscape:label="Layer 1"
     inkscape:groupmode="layer"
     id="layer1">
    <path
       sodipodi:type="arc"
       style="fill:#979785;fill-opacity:1;stroke:#716161;stroke-width:13.28265953;stroke-miterlimit:4;stroke-opacity:1;stroke-dasharray:none;stroke-dashoffset:0"
       id="path3834"
       sodipodi:cx="207.53584"
       sodipodi:cy="129.94139"
       sodipodi:rx="79.195961"
       sodipodi:ry="79.195961"
       d="m 286.7318,129.94139 a 79.195961,79.195961 0 1 1 -158.39192,0 79.195961,79.195961 0 1 1 158.39192,0 z"
       transform="matrix(0.07528613,0,0,0.07528612,-8.162213,1035.117)"
       inkscape:export-filename="C:\Games\Starfarer\mods\src\g4327.png"
       inkscape:export-xdpi="100"
       inkscape:export-ydpi="100" />
    <path
       sodipodi:type="arc"
       style="fill:#979785;fill-opacity:1;stroke:#716161;stroke-width:13.28265953;stroke-miterlimit:4;stroke-opacity:1;stroke-dasharray:none;stroke-dashoffset:0"
       id="path3834-4"
       sodipodi:cx="207.53584"
       sodipodi:cy="129.94139"
       sodipodi:rx="79.195961"
       sodipodi:ry="79.195961"
       d="m 286.7318,129.94139 a 79.195961,79.195961 0 1 1 -158.39192,0 79.195961,79.195961 0 1 1 158.39192,0 z"
       transform="matrix(0.07272082,0.01948548,-0.01948548,0.07272081,9.8904311,1031.4)"
       inkscape:export-filename="C:\Games\Starfarer\mods\src\g4327.png"
       inkscape:export-xdpi="100"
       inkscape:export-ydpi="100" />
    <path
       sodipodi:type="arc"
       style="fill:#979785;fill-opacity:1;stroke:#716161;stroke-width:13.28265953;stroke-miterlimit:4;stroke-opacity:1;stroke-dasharray:none;stroke-dashoffset:0"
       id="path3834-4-1"
       sodipodi:cx="207.53584"
       sodipodi:cy="129.94139"
       sodipodi:rx="79.195961"
       sodipodi:ry="79.195961"
       d="m 286.7318,129.94139 a 79.195961,79.195961 0 1 1 -158.39192,0 79.195961,79.195961 0 1 1 158.39192,0 z"
       transform="matrix(0.0651997,0.03764307,-0.03764306,0.06519969,27.820307,1028.6089)"
       inkscape:export-filename="C:\Games\Starfarer\mods\src\g4327.png"
       inkscape:export-xdpi="100"
       inkscape:export-ydpi="100" />
    <path
       sodipodi:type="arc"
       style="fill:#979785;fill-opacity:1;stroke:#716161;stroke-width:13.28265953;stroke-miterlimit:4;stroke-opacity:1;stroke-dasharray:none;stroke-dashoffset:0"
       id="path3834-4-1-6"
       sodipodi:cx="207.53584"
       sodipodi:cy="129.94139"
       sodipodi:rx="79.195961"
       sodipodi:ry="79.195961"
       d="m 286.7318,129.94139 a 79.195961,79.195961 0 1 1 -158.39192,0 79.195961,79.195961 0 1 1 158.39192,0 z"
       transform="matrix(0.05323533,0.05323533,-0.05323533,0.05323533,47.311259,1026.9276)"
       inkscape:export-filename="C:\Games\Starfarer\mods\src\g4327.png"
       inkscape:export-xdpi="100"
       inkscape:export-ydpi="100" />
    <path
       sodipodi:type="arc"
       style="fill:#979785;fill-opacity:1;stroke:#716161;stroke-width:13.28265953;stroke-miterlimit:4;stroke-opacity:1;stroke-dasharray:none;stroke-dashoffset:0"
       id="path3834-4-1-6-2"
       sodipodi:cx="207.53584"
       sodipodi:cy="129.94139"
       sodipodi:rx="79.195961"
       sodipodi:ry="79.195961"
       d="m 286.7318,129.94139 a 79.195961,79.195961 0 1 1 -158.39192,0 79.195961,79.195961 0 1 1 158.39192,0 z"
       transform="matrix(0.03764307,0.0651997,-0.06519969,0.03764306,67.127896,1026.4707)"
       inkscape:export-filename="C:\Games\Starfarer\mods\src\g4327.png"
       inkscape:export-xdpi="100"
       inkscape:export-ydpi="100" />
    <g
       id="g3968-7-7-3-8"
       transform="matrix(0.5,0.86602541,-0.86602541,0.5,973.3322,503.7094)" />
    <path
       sodipodi:type="arc"
       style="fill:#979785;fill-opacity:1;stroke:#716161;stroke-width:13.28265953;stroke-miterlimit:4;stroke-opacity:1;stroke-dasharray:none;stroke-dashoffset:0"
       id="path3834-4-1-6-2-2"
       sodipodi:cx="207.53584"
       sodipodi:cy="129.94139"
       sodipodi:rx="79.195961"
       sodipodi:ry="79.195961"
       d="m 286.7318,129.94139 a 79.195961,79.195961 0 1 1 -158.39192,0 79.195961,79.195961 0 1 1 158.39192,0 z"
       transform="matrix(0.01948548,0.07272082,-0.07272081,0.01948548,85.83895,1027.2692)"
       inkscape:export-filename="C:\Games\Starfarer\mods\src\g4327.png"
       inkscape:export-xdpi="100"
       inkscape:export-ydpi="100" />
    <path
       sodipodi:type="arc"
       style="fill:#979785;fill-opacity:1;stroke:#716161;stroke-width:13.28265953;stroke-miterlimit:4;stroke-opacity:1;stroke-dasharray:none;stroke-dashoffset:0"
       id="path3834-4-1-6-2-2-3"
       sodipodi:cx="207.53584"
       sodipodi:cy="129.94139"
       sodipodi:rx="79.195961"
       sodipodi:ry="79.195961"
       d="m 286.7318,129.94139 a 79.195961,79.195961 0 1 1 -158.39192,0 79.195961,79.195961 0 1 1 158.39192,0 z"
       transform="matrix(0,0.07528613,-0.07528612,0,104.2699,1029.2688)"
       inkscape:export-filename="C:\Games\Starfarer\mods\src\g4327.png"
       inkscape:export-xdpi="100"
       inkscape:export-ydpi="100" />
    <path
       d="m 286.7318,129.94139 a 79.195961,79.195961 0 1 1 -158.39192,0 79.195961,79.195961 0 1 1 158.39192,0 z"
       sodipodi:ry="79.195961"
       sodipodi:rx="79.195961"
       sodipodi:cy="129.94139"
       sodipodi:cx="207.53584"
       id="path3836-5-1-1-2-7-1"
       style="fill:#979785;fill-opacity:1;stroke:#716161;stroke-width:13.28265953;stroke-miterlimit:4;stroke-opacity:1;stroke-dasharray:none;stroke-dashoffset:0"
       sodipodi:type="arc"
       transform="matrix(0,0.07528613,-0.07528612,0,104.2699,1029.2688)"
       inkscape:export-filename="C:\Games\Starfarer\mods\src\g4327.png"
       inkscape:export-xdpi="100"
       inkscape:export-ydpi="100" />
    <path
       transform="matrix(0,0.0343083,-0.03430829,0,101.9661,1037.7732)"
       d="m 286.7318,129.94139 a 79.195961,79.195961 0 1 1 -158.39192,0 79.195961,79.195961 0 1 1 158.39192,0 z"
       sodipodi:ry="79.195961"
       sodipodi:rx="79.195961"
       sodipodi:cy="129.94139"
       sodipodi:cx="207.53584"
       id="path3836-4-5-5-4-1-9-2"
       style="fill:#e2e2dd;fill-opacity:1;stroke:none"
       sodipodi:type="arc"
       inkscape:export-filename="C:\Games\Starfarer\mods\src\g4327.png"
       inkscape:export-xdpi="100"
       inkscape:export-ydpi="100" />
    <path
       transform="matrix(0,0.0343083,-0.03430829,0,95.9196,1037.7732)"
       d="m 286.7318,129.94139 a 79.195961,79.195961 0 1 1 -158.39192,0 79.195961,79.195961 0 1 1 158.39192,0 z"
       sodipodi:ry="79.195961"
       sodipodi:rx="79.195961"
       sodipodi:cy="129.94139"
       sodipodi:cx="207.53584"
       id="path3836-4-0-1-2-2-6-5-3"
       style="fill:#e2e2dd;fill-opacity:1;stroke:none"
       sodipodi:type="arc"
       inkscape:export-filename="C:\Games\Starfarer\mods\src\g4327.png"
       inkscape:export-xdpi="100"
       inkscape:export-ydpi="100" />
    <path
       transform="matrix(0,0.07528613,-0.07528612,0,104.2699,1029.2688)"
       d="m 286.7318,129.94139 a 79.195961,79.195961 0 1 1 -158.39192,0 79.195961,79.195961 0 1 1 158.39192,0 z"
       sodipodi:ry="79.195961"
       sodipodi:rx="79.195961"
       sodipodi:cy="129.94139"
       sodipodi:cx="207.53584"
       id="path4162"
       style="fill:#979785;fill-opacity:1;stroke:#716161;stroke-width:13.28265953;stroke-miterlimit:4;stroke-opacity:1;stroke-dasharray:none;stroke-dashoffset:0"
       sodipodi:type="arc"
       inkscape:export-filename="C:\Games\Starfarer\mods\src\g4327.png"
       inkscape:export-xdpi="100"
       inkscape:export-ydpi="100" />
    <path
       sodipodi:type="arc"
       style="fill:#979785;fill-opacity:1;stroke:#716161;stroke-width:13.28265953;stroke-miterlimit:4;stroke-opacity:1;stroke-dasharray:none;stroke-dashoffset:0"
       id="path3834-4-2"
       sodipodi:cx="207.53584"
       sodipodi:cy="129.94139"
       sodipodi:rx="79.195961"
       sodipodi:ry="79.195961"
       d="m 286.7318,129.94139 a 79.195961,79.195961 0 1 1 -158.39192,0 79.195961,79.195961 0 1 1 158.39192,0 z"
       transform="matrix(-0.07272082,0.01948548,0.01948548,0.07272081,180.03158,1031.4196)"
       inkscape:export-filename="C:\Games\Starfarer\mods\src\g4327.png"
       inkscape:export-xdpi="100"
       inkscape:export-ydpi="100" />
    <path
       sodipodi:type="arc"
       style="fill:#979785;fill-opacity:1;stroke:#716161;stroke-width:13.28265953;stroke-miterlimit:4;stroke-opacity:1;stroke-dasharray:none;stroke-dashoffset:0"
       id="path3834-4-1-1"
       sodipodi:cx="207.53584"
       sodipodi:cy="129.94139"
       sodipodi:rx="79.195961"
       sodipodi:ry="79.195961"
       d="m 286.7318,129.94139 a 79.195961,79.195961 0 1 1 -158.39192,0 79.195961,79.195961 0 1 1 158.39192,0 z"
       transform="matrix(-0.0651997,0.03764307,0.03764306,0.06519969,162.1017,1028.6286)"
       inkscape:export-filename="C:\Games\Starfarer\mods\src\g4327.png"
       inkscape:export-xdpi="100"
       inkscape:export-ydpi="100" />
    <path
       sodipodi:type="arc"
       style="fill:#979785;fill-opacity:1;stroke:#716161;stroke-width:13.28265953;stroke-miterlimit:4;stroke-opacity:1;stroke-dasharray:none;stroke-dashoffset:0"
       id="path3834-4-1-6-0"
       sodipodi:cx="207.53584"
       sodipodi:cy="129.94139"
       sodipodi:rx="79.195961"
       sodipodi:ry="79.195961"
       d="m 286.7318,129.94139 a 79.195961,79.195961 0 1 1 -158.39192,0 79.195961,79.195961 0 1 1 158.39192,0 z"
       transform="matrix(-0.05323533,0.05323533,0.05323533,0.05323533,142.61075,1026.9473)"
       inkscape:export-filename="C:\Games\Starfarer\mods\src\g4327.png"
       inkscape:export-xdpi="100"
       inkscape:export-ydpi="100" />
    <path
       sodipodi:type="arc"
       style="fill:#979785;fill-opacity:1;stroke:#716161;stroke-width:13.28265953;stroke-miterlimit:4;stroke-opacity:1;stroke-dasharray:none;stroke-dashoffset:0"
       id="path3834-4-1-6-2-4"
       sodipodi:cx="207.53584"
       sodipodi:cy="129.94139"
       sodipodi:rx="79.195961"
       sodipodi:ry="79.195961"
       d="m 286.7318,129.94139 a 79.195961,79.195961 0 1 1 -158.39192,0 79.195961,79.195961 0 1 1 158.39192,0 z"
       transform="matrix(-0.03764307,0.0651997,0.06519969,0.03764306,122.79411,1026.4903)"
       inkscape:export-filename="C:\Games\Starfarer\mods\src\g4327.png"
       inkscape:export-xdpi="100"
       inkscape:export-ydpi="100" />
    <path
       sodipodi:type="arc"
       style="fill:#979785;fill-opacity:1;stroke:#716161;stroke-width:13.28265953;stroke-miterlimit:4;stroke-opacity:1;stroke-dasharray:none;stroke-dashoffset:0"
       id="path3834-4-1-6-2-2-0"
       sodipodi:cx="207.53584"
       sodipodi:cy="129.94139"
       sodipodi:rx="79.195961"
       sodipodi:ry="79.195961"
       d="m 286.7318,129.94139 a 79.195961,79.195961 0 1 1 -158.39192,0 79.195961,79.195961 0 1 1 158.39192,0 z"
       transform="matrix(-0.01948548,0.07272082,0.07272081,0.01948548,104.08305,1027.2889)"
       inkscape:export-filename="C:\Games\Starfarer\mods\src\g4327.png"
       inkscape:export-xdpi="100"
       inkscape:export-ydpi="100" />
    <g
       id="g4353"
       style="stroke:#716161;stroke-opacity:1"
       inkscape:export-filename="C:\Games\Starfarer\mods\src\g4327.png"
       inkscape:export-xdpi="100"
       inkscape:export-ydpi="100">
      <path
         transform="matrix(0.07528613,0,0,0.07528612,-8.162213,1035.117)"
         sodipodi:type="arc"
         style="fill:#979785;fill-opacity:1;stroke:#716161;stroke-width:13.28265953000000000;stroke-miterlimit:4;stroke-opacity:1;stroke-dasharray:none;stroke-dashoffset:0"
         id="path3836"
         sodipodi:cx="207.53584"
         sodipodi:cy="129.94139"
         sodipodi:rx="79.195961"
         sodipodi:ry="79.195961"
         d="m 286.7318,129.94139 a 79.195961,79.195961 0 1 1 -158.39192,0 79.195961,79.195961 0 1 1 158.39192,0 z" />
      <path
         transform="matrix(0.07272082,0.01948548,-0.01948548,0.07272081,9.8904311,1031.4)"
         sodipodi:type="arc"
         style="fill:#979785;fill-opacity:1;stroke:#716161;stroke-width:13.28265953000000000;stroke-miterlimit:4;stroke-opacity:1;stroke-dasharray:none;stroke-dashoffset:0"
         id="path3836-5"
         sodipodi:cx="207.53584"
         sodipodi:cy="129.94139"
         sodipodi:rx="79.195961"
         sodipodi:ry="79.195961"
         d="m 286.7318,129.94139 a 79.195961,79.195961 0 1 1 -158.39192,0 79.195961,79.195961 0 1 1 158.39192,0 z" />
      <path
         transform="matrix(0.0651997,0.03764307,-0.03764306,0.06519969,27.820307,1028.6089)"
         sodipodi:type="arc"
         style="fill:#979785;fill-opacity:1;stroke:#716161;stroke-width:13.28265953000000000;stroke-miterlimit:4;stroke-opacity:1;stroke-dasharray:none;stroke-dashoffset:0"
         id="path3836-5-1"
         sodipodi:cx="207.53584"
         sodipodi:cy="129.94139"
         sodipodi:rx="79.195961"
         sodipodi:ry="79.195961"
         d="m 286.7318,129.94139 a 79.195961,79.195961 0 1 1 -158.39192,0 79.195961,79.195961 0 1 1 158.39192,0 z" />
      <path
         transform="matrix(0.05323533,0.05323533,-0.05323533,0.05323533,47.311259,1026.9276)"
         sodipodi:type="arc"
         style="fill:#979785;fill-opacity:1;stroke:#716161;stroke-width:13.28265953000000000;stroke-miterlimit:4;stroke-opacity:1;stroke-dasharray:none;stroke-dashoffset:0"
         id="path3836-5-1-1"
         sodipodi:cx="207.53584"
         sodipodi:cy="129.94139"
         sodipodi:rx="79.195961"
         sodipodi:ry="79.195961"
         d="m 286.7318,129.94139 a 79.195961,79.195961 0 1 1 -158.39192,0 79.195961,79.195961 0 1 1 158.39192,0 z" />
      <path
         transform="matrix(0.03764307,0.0651997,-0.06519969,0.03764306,67.127896,1026.4707)"
         sodipodi:type="arc"
         style="fill:#979785;fill-opacity:1;stroke:#716161;stroke-width:13.28265953000000000;stroke-miterlimit:4;stroke-opacity:1;stroke-dasharray:none;stroke-dashoffset:0"
         id="path3836-5-1-1-2"
         sodipodi:cx="207.53584"
         sodipodi:cy="129.94139"
         sodipodi:rx="79.195961"
         sodipodi:ry="79.195961"
         d="m 286.7318,129.94139 a 79.195961,79.195961 0 1 1 -158.39192,0 79.195961,79.195961 0 1 1 158.39192,0 z" />
      <path
         transform="matrix(0.01948548,0.07272082,-0.07272081,0.01948548,85.83895,1027.2692)"
         sodipodi:type="arc"
         style="fill:#979785;fill-opacity:1;stroke:#716161;stroke-width:13.28265953000000000;stroke-miterlimit:4;stroke-opacity:1;stroke-dasharray:none;stroke-dashoffset:0"
         id="path3836-5-1-1-2-7"
         sodipodi:cx="207.53584"
         sodipodi:cy="129.94139"
         sodipodi:rx="79.195961"
         sodipodi:ry="79.195961"
         d="m 286.7318,129.94139 a 79.195961,79.195961 0 1 1 -158.39192,0 79.195961,79.195961 0 1 1 158.39192,0 z" />
      <path
         d="m 286.7318,129.94139 a 79.195961,79.195961 0 1 1 -158.39192,0 79.195961,79.195961 0 1 1 158.39192,0 z"
         sodipodi:ry="79.195961"
         sodipodi:rx="79.195961"
         sodipodi:cy="129.94139"
         sodipodi:cx="207.53584"
         id="path4164"
         style="fill:#979785;fill-opacity:1;stroke:#716161;stroke-width:13.28265953000000000;stroke-miterlimit:4;stroke-opacity:1;stroke-dasharray:none;stroke-dashoffset:0"
         sodipodi:type="arc"
         transform="matrix(0,0.07528613,-0.07528612,0,104.2699,1029.2688)" />
      <path
         transform="matrix(-0.07272082,0.01948548,0.01948548,0.07272081,180.03158,1031.4196)"
         sodipodi:type="arc"
         style="fill:#979785;fill-opacity:1;stroke:#716161;stroke-width:13.28265953000000000;stroke-miterlimit:4;stroke-opacity:1;stroke-dasharray:none;stroke-dashoffset:0"
         id="path3836-5-7"
         sodipodi:cx="207.53584"
         sodipodi:cy="129.94139"
         sodipodi:rx="79.195961"
         sodipodi:ry="79.195961"
         d="m 286.7318,129.94139 a 79.195961,79.195961 0 1 1 -158.39192,0 79.195961,79.195961 0 1 1 158.39192,0 z" />
      <path
         transform="matrix(-0.0651997,0.03764307,0.03764306,0.06519969,162.1017,1028.6286)"
         sodipodi:type="arc"
         style="fill:#979785;fill-opacity:1;stroke:#716161;stroke-width:13.28265953000000000;stroke-miterlimit:4;stroke-opacity:1;stroke-dasharray:none;stroke-dashoffset:0"
         id="path3836-5-1-9"
         sodipodi:cx="207.53584"
         sodipodi:cy="129.94139"
         sodipodi:rx="79.195961"
         sodipodi:ry="79.195961"
         d="m 286.7318,129.94139 a 79.195961,79.195961 0 1 1 -158.39192,0 79.195961,79.195961 0 1 1 158.39192,0 z" />
      <path
         transform="matrix(-0.05323533,0.05323533,0.05323533,0.05323533,142.61075,1026.9473)"
         sodipodi:type="arc"
         style="fill:#979785;fill-opacity:1;stroke:#716161;stroke-width:13.28265953000000000;stroke-miterlimit:4;stroke-opacity:1;stroke-dasharray:none;stroke-dashoffset:0"
         id="path3836-5-1-1-28"
         sodipodi:cx="207.53584"
         sodipodi:cy="129.94139"
         sodipodi:rx="79.195961"
         sodipodi:ry="79.195961"
         d="m 286.7318,129.94139 a 79.195961,79.195961 0 1 1 -158.39192,0 79.195961,79.195961 0 1 1 158.39192,0 z" />
      <path
         transform="matrix(-0.03764307,0.0651997,0.06519969,0.03764306,122.79411,1026.4903)"
         sodipodi:type="arc"
         style="fill:#979785;fill-opacity:1;stroke:#716161;stroke-width:13.28265953000000000;stroke-miterlimit:4;stroke-opacity:1;stroke-dasharray:none;stroke-dashoffset:0"
         id="path3836-5-1-1-2-8"
         sodipodi:cx="207.53584"
         sodipodi:cy="129.94139"
         sodipodi:rx="79.195961"
         sodipodi:ry="79.195961"
         d="m 286.7318,129.94139 a 79.195961,79.195961 0 1 1 -158.39192,0 79.195961,79.195961 0 1 1 158.39192,0 z" />
      <path
         transform="matrix(-0.01948548,0.07272082,0.07272081,0.01948548,104.08305,1027.2889)"
         sodipodi:type="arc"
         style="fill:#979785;fill-opacity:1;stroke:#716161;stroke-width:13.28265953000000000;stroke-miterlimit:4;stroke-opacity:1;stroke-dasharray:none;stroke-dashoffset:0"
         id="path3836-5-1-1-2-7-0"
         sodipodi:cx="207.53584"
         sodipodi:cy="129.94139"
         sodipodi:rx="79.195961"
         sodipodi:ry="79.195961"
         d="m 286.7318,129.94139 a 79.195961,79.195961 0 1 1 -158.39192,0 79.195961,79.195961 0 1 1 158.39192,0 z" />
    </g>
    <g
       id="g4327"
       style="stroke:#412f1f;stroke-opacity:1;stroke-width:0.4;stroke-miterlimit:4;stroke-dasharray:none"
       inkscape:export-xdpi="100"
       inkscape:export-ydpi="100">
      <path
         sodipodi:type="arc"
         style="fill:#e2e2dd;fill-opacity:1;stroke:#412f1f;stroke-opacity:1;stroke-width:11.65898801;stroke-miterlimit:4;stroke-dasharray:none"
         id="path3836-4"
         sodipodi:cx="207.53584"
         sodipodi:cy="129.94139"
         sodipodi:rx="79.195961"
         sodipodi:ry="79.195961"
         d="m 286.7318,129.94139 a 79.195961,79.195961 0 1 1 -158.39192,0 79.195961,79.195961 0 1 1 158.39192,0 z"
         transform="matrix(0.0343083,0,0,0.03430829,0.34215567,1037.4208)" />
      <path
         sodipodi:type="arc"
         style="fill:#e2e2dd;fill-opacity:1;stroke:#412f1f;stroke-opacity:1;stroke-width:11.65898801;stroke-miterlimit:4;stroke-dasharray:none"
         id="path3836-4-0"
         sodipodi:cx="207.53584"
         sodipodi:cy="129.94139"
         sodipodi:rx="79.195961"
         sodipodi:ry="79.195961"
         d="m 286.7318,129.94139 a 79.195961,79.195961 0 1 1 -158.39192,0 79.195961,79.195961 0 1 1 158.39192,0 z"
         transform="matrix(0.0343083,0,0,0.03430829,0.34215567,1043.4673)" />
      <path
         sodipodi:type="arc"
         style="fill:#e2e2dd;fill-opacity:1;stroke:#412f1f;stroke-opacity:1;stroke-width:11.65898907;stroke-miterlimit:4;stroke-dasharray:none"
         id="path3836-4-5"
         sodipodi:cx="207.53584"
         sodipodi:cy="129.94139"
         sodipodi:rx="79.195961"
         sodipodi:ry="79.195961"
         d="m 286.7318,129.94139 a 79.195961,79.195961 0 1 1 -158.39192,0 79.195961,79.195961 0 1 1 158.39192,0 z"
         transform="matrix(0.03313927,0.00887964,-0.00887964,0.03313926,17.508753,1035.8264)" />
      <path
         sodipodi:type="arc"
         style="fill:#e2e2dd;fill-opacity:1;stroke:#412f1f;stroke-opacity:1;stroke-width:11.65898907;stroke-miterlimit:4;stroke-dasharray:none"
         id="path3836-4-0-1"
         sodipodi:cx="207.53584"
         sodipodi:cy="129.94139"
         sodipodi:rx="79.195961"
         sodipodi:ry="79.195961"
         d="m 286.7318,129.94139 a 79.195961,79.195961 0 1 1 -158.39192,0 79.195961,79.195961 0 1 1 158.39192,0 z"
         transform="matrix(0.03313927,0.00887964,-0.00887964,0.03313926,15.943804,1041.6668)" />
      <path
         sodipodi:type="arc"
         style="fill:#e2e2dd;fill-opacity:1;stroke:#412f1f;stroke-opacity:1;stroke-width:11.65898759;stroke-miterlimit:4;stroke-dasharray:none"
         id="path3836-4-5-5"
         sodipodi:cx="207.53584"
         sodipodi:cy="129.94139"
         sodipodi:rx="79.195961"
         sodipodi:ry="79.195961"
         d="m 286.7318,129.94139 a 79.195961,79.195961 0 1 1 -158.39192,0 79.195961,79.195961 0 1 1 158.39192,0 z"
         transform="matrix(0.02971186,0.01715415,-0.01715415,0.02971185,34.033406,1034.8563)" />
      <path
         sodipodi:type="arc"
         style="fill:#e2e2dd;fill-opacity:1;stroke:#412f1f;stroke-opacity:1;stroke-width:11.65898759;stroke-miterlimit:4;stroke-dasharray:none"
         id="path3836-4-0-1-2"
         sodipodi:cx="207.53584"
         sodipodi:cy="129.94139"
         sodipodi:rx="79.195961"
         sodipodi:ry="79.195961"
         d="m 286.7318,129.94139 a 79.195961,79.195961 0 1 1 -158.39192,0 79.195961,79.195961 0 1 1 158.39192,0 z"
         transform="matrix(0.02971186,0.01715415,-0.01715415,0.02971185,31.010156,1040.0927)" />
      <path
         sodipodi:type="arc"
         style="fill:#e2e2dd;fill-opacity:1;stroke:#412f1f;stroke-opacity:1;stroke-width:11.65898947;stroke-miterlimit:4;stroke-dasharray:none"
         id="path3836-4-5-5-4"
         sodipodi:cx="207.53584"
         sodipodi:cy="129.94139"
         sodipodi:rx="79.195961"
         sodipodi:ry="79.195961"
         d="m 286.7318,129.94139 a 79.195961,79.195961 0 1 1 -158.39192,0 79.195961,79.195961 0 1 1 158.39192,0 z"
         transform="matrix(0.02425963,0.02425963,-0.02425962,0.02425962,51.695723,1034.5702)" />
      <path
         sodipodi:type="arc"
         style="fill:#e2e2dd;fill-opacity:1;stroke:#412f1f;stroke-opacity:1;stroke-width:11.65898947;stroke-miterlimit:4;stroke-dasharray:none"
         id="path3836-4-0-1-2-2"
         sodipodi:cx="207.53584"
         sodipodi:cy="129.94139"
         sodipodi:rx="79.195961"
         sodipodi:ry="79.195961"
         d="m 286.7318,129.94139 a 79.195961,79.195961 0 1 1 -158.39192,0 79.195961,79.195961 0 1 1 158.39192,0 z"
         transform="matrix(0.02425963,0.02425963,-0.02425962,0.02425962,47.420202,1038.8457)" />
      <path
         sodipodi:type="arc"
         style="fill:#e2e2dd;fill-opacity:1;stroke:#412f1f;stroke-opacity:1;stroke-width:11.65898759;stroke-miterlimit:4;stroke-dasharray:none"
         id="path3836-4-5-5-4-1"
         sodipodi:cx="207.53584"
         sodipodi:cy="129.94139"
         sodipodi:rx="79.195961"
         sodipodi:ry="79.195961"
         d="m 286.7318,129.94139 a 79.195961,79.195961 0 1 1 -158.39192,0 79.195961,79.195961 0 1 1 158.39192,0 z"
         transform="matrix(0.01715415,0.02971186,-0.02971185,0.01715415,69.384931,1034.9876)" />
      <path
         sodipodi:type="arc"
         style="fill:#e2e2dd;fill-opacity:1;stroke:#412f1f;stroke-opacity:1;stroke-width:11.65898759;stroke-miterlimit:4;stroke-dasharray:none"
         id="path3836-4-0-1-2-2-6"
         sodipodi:cx="207.53584"
         sodipodi:cy="129.94139"
         sodipodi:rx="79.195961"
         sodipodi:ry="79.195961"
         d="m 286.7318,129.94139 a 79.195961,79.195961 0 1 1 -158.39192,0 79.195961,79.195961 0 1 1 158.39192,0 z"
         transform="matrix(0.01715415,0.02971186,-0.02971185,0.01715415,64.148509,1038.0108)" />
      <path
         sodipodi:type="arc"
         style="fill:#e2e2dd;fill-opacity:1;stroke:#412f1f;stroke-opacity:1;stroke-width:11.65898907;stroke-miterlimit:4;stroke-dasharray:none"
         id="path3836-4-5-5-4-1-9"
         sodipodi:cx="207.53584"
         sodipodi:cy="129.94139"
         sodipodi:rx="79.195961"
         sodipodi:ry="79.195961"
         d="m 286.7318,129.94139 a 79.195961,79.195961 0 1 1 -158.39192,0 79.195961,79.195961 0 1 1 158.39192,0 z"
         transform="matrix(0.00887964,0.03313927,-0.03313926,0.00887964,85.814742,1036.0801)" />
      <path
         sodipodi:type="arc"
         style="fill:#e2e2dd;fill-opacity:1;stroke:#412f1f;stroke-opacity:1;stroke-width:11.65898907;stroke-miterlimit:4;stroke-dasharray:none"
         id="path3836-4-0-1-2-2-6-5"
         sodipodi:cx="207.53584"
         sodipodi:cy="129.94139"
         sodipodi:rx="79.195961"
         sodipodi:ry="79.195961"
         d="m 286.7318,129.94139 a 79.195961,79.195961 0 1 1 -158.39192,0 79.195961,79.195961 0 1 1 158.39192,0 z"
         transform="matrix(0.00887964,0.03313927,-0.03313926,0.00887964,79.974272,1037.645)" />
      <path
         transform="matrix(0,0.0343083,-0.03430829,0,101.9661,1037.7732)"
         d="m 286.7318,129.94139 a 79.195961,79.195961 0 1 1 -158.39192,0 79.195961,79.195961 0 1 1 158.39192,0 z"
         sodipodi:ry="79.195961"
         sodipodi:rx="79.195961"
         sodipodi:cy="129.94139"
         sodipodi:cx="207.53584"
         id="path4166"
         style="fill:#e2e2dd;fill-opacity:1;stroke:#412f1f;stroke-opacity:1;stroke-width:11.65898801;stroke-miterlimit:4;stroke-dasharray:none"
         sodipodi:type="arc" />
      <path
         transform="matrix(0,0.0343083,-0.03430829,0,95.9196,1037.7732)"
         d="m 286.7318,129.94139 a 79.195961,79.195961 0 1 1 -158.39192,0 79.195961,79.195961 0 1 1 158.39192,0 z"
         sodipodi:ry="79.195961"
         sodipodi:rx="79.195961"
         sodipodi:cy="129.94139"
         sodipodi:cx="207.53584"
         id="path4168"
         style="fill:#e2e2dd;fill-opacity:1;stroke:#412f1f;stroke-opacity:1;stroke-width:11.65898801;stroke-miterlimit:4;stroke-dasharray:none"
         sodipodi:type="arc" />
      <path
         sodipodi:type="arc"
         style="fill:#e2e2dd;fill-opacity:1;stroke:#412f1f;stroke-opacity:1;stroke-width:11.65898907;stroke-miterlimit:4;stroke-dasharray:none"
         id="path3836-4-5-7"
         sodipodi:cx="207.53584"
         sodipodi:cy="129.94139"
         sodipodi:rx="79.195961"
         sodipodi:ry="79.195961"
         d="m 286.7318,129.94139 a 79.195961,79.195961 0 1 1 -158.39192,0 79.195961,79.195961 0 1 1 158.39192,0 z"
         transform="matrix(-0.03313927,0.00887964,0.00887964,0.03313926,172.41325,1035.846)" />
      <path
         sodipodi:type="arc"
         style="fill:#e2e2dd;fill-opacity:1;stroke:#412f1f;stroke-opacity:1;stroke-width:11.65898907;stroke-miterlimit:4;stroke-dasharray:none"
         id="path3836-4-0-1-9"
         sodipodi:cx="207.53584"
         sodipodi:cy="129.94139"
         sodipodi:rx="79.195961"
         sodipodi:ry="79.195961"
         d="m 286.7318,129.94139 a 79.195961,79.195961 0 1 1 -158.39192,0 79.195961,79.195961 0 1 1 158.39192,0 z"
         transform="matrix(-0.03313927,0.00887964,0.00887964,0.03313926,173.9782,1041.6865)" />
      <path
         sodipodi:type="arc"
         style="fill:#e2e2dd;fill-opacity:1;stroke:#412f1f;stroke-opacity:1;stroke-width:11.65898759;stroke-miterlimit:4;stroke-dasharray:none"
         id="path3836-4-5-5-8"
         sodipodi:cx="207.53584"
         sodipodi:cy="129.94139"
         sodipodi:rx="79.195961"
         sodipodi:ry="79.195961"
         d="m 286.7318,129.94139 a 79.195961,79.195961 0 1 1 -158.39192,0 79.195961,79.195961 0 1 1 158.39192,0 z"
         transform="matrix(-0.02971186,0.01715415,0.01715415,0.02971185,155.8886,1034.8759)" />
      <path
         sodipodi:type="arc"
         style="fill:#e2e2dd;fill-opacity:1;stroke:#412f1f;stroke-opacity:1;stroke-width:11.65898759;stroke-miterlimit:4;stroke-dasharray:none"
         id="path3836-4-0-1-2-6"
         sodipodi:cx="207.53584"
         sodipodi:cy="129.94139"
         sodipodi:rx="79.195961"
         sodipodi:ry="79.195961"
         d="m 286.7318,129.94139 a 79.195961,79.195961 0 1 1 -158.39192,0 79.195961,79.195961 0 1 1 158.39192,0 z"
         transform="matrix(-0.02971186,0.01715415,0.01715415,0.02971185,158.91185,1040.1124)" />
      <path
         sodipodi:type="arc"
         style="fill:#e2e2dd;fill-opacity:1;stroke:#412f1f;stroke-opacity:1;stroke-width:11.65898947;stroke-miterlimit:4;stroke-dasharray:none"
         id="path3836-4-5-5-4-6"
         sodipodi:cx="207.53584"
         sodipodi:cy="129.94139"
         sodipodi:rx="79.195961"
         sodipodi:ry="79.195961"
         d="m 286.7318,129.94139 a 79.195961,79.195961 0 1 1 -158.39192,0 79.195961,79.195961 0 1 1 158.39192,0 z"
         transform="matrix(-0.02425963,0.02425963,0.02425962,0.02425962,138.22629,1034.5899)" />
      <path
         sodipodi:type="arc"
         style="fill:#e2e2dd;fill-opacity:1;stroke:#412f1f;stroke-opacity:1;stroke-width:11.65898947;stroke-miterlimit:4;stroke-dasharray:none"
         id="path3836-4-0-1-2-2-0"
         sodipodi:cx="207.53584"
         sodipodi:cy="129.94139"
         sodipodi:rx="79.195961"
         sodipodi:ry="79.195961"
         d="m 286.7318,129.94139 a 79.195961,79.195961 0 1 1 -158.39192,0 79.195961,79.195961 0 1 1 158.39192,0 z"
         transform="matrix(-0.02425963,0.02425963,0.02425962,0.02425962,142.50181,1038.8654)" />
      <path
         sodipodi:type="arc"
         style="fill:#e2e2dd;fill-opacity:1;stroke:#412f1f;stroke-opacity:1;stroke-width:11.65898759;stroke-miterlimit:4;stroke-dasharray:none"
         id="path3836-4-5-5-4-1-6"
         sodipodi:cx="207.53584"
         sodipodi:cy="129.94139"
         sodipodi:rx="79.195961"
         sodipodi:ry="79.195961"
         d="m 286.7318,129.94139 a 79.195961,79.195961 0 1 1 -158.39192,0 79.195961,79.195961 0 1 1 158.39192,0 z"
         transform="matrix(-0.01715415,0.02971186,0.02971185,0.01715415,120.53708,1035.0072)" />
      <path
         sodipodi:type="arc"
         style="fill:#e2e2dd;fill-opacity:1;stroke:#412f1f;stroke-opacity:1;stroke-width:11.65898759;stroke-miterlimit:4;stroke-dasharray:none"
         id="path3836-4-0-1-2-2-6-50"
         sodipodi:cx="207.53584"
         sodipodi:cy="129.94139"
         sodipodi:rx="79.195961"
         sodipodi:ry="79.195961"
         d="m 286.7318,129.94139 a 79.195961,79.195961 0 1 1 -158.39192,0 79.195961,79.195961 0 1 1 158.39192,0 z"
         transform="matrix(-0.01715415,0.02971186,0.02971185,0.01715415,125.7735,1038.0305)" />
      <path
         sodipodi:type="arc"
         style="fill:#e2e2dd;fill-opacity:1;stroke:#412f1f;stroke-opacity:1;stroke-width:11.65898907;stroke-miterlimit:4;stroke-dasharray:none"
         id="path3836-4-5-5-4-1-9-6"
         sodipodi:cx="207.53584"
         sodipodi:cy="129.94139"
         sodipodi:rx="79.195961"
         sodipodi:ry="79.195961"
         d="m 286.7318,129.94139 a 79.195961,79.195961 0 1 1 -158.39192,0 79.195961,79.195961 0 1 1 158.39192,0 z"
         transform="matrix(-0.00887964,0.03313927,0.03313926,0.00887964,104.10726,1036.0998)" />
      <path
         sodipodi:type="arc"
         style="fill:#e2e2dd;fill-opacity:1;stroke:#412f1f;stroke-opacity:1;stroke-width:11.65898907;stroke-miterlimit:4;stroke-dasharray:none"
         id="path3836-4-0-1-2-2-6-5-1"
         sodipodi:cx="207.53584"
         sodipodi:cy="129.94139"
         sodipodi:rx="79.195961"
         sodipodi:ry="79.195961"
         d="m 286.7318,129.94139 a 79.195961,79.195961 0 1 1 -158.39192,0 79.195961,79.195961 0 1 1 158.39192,0 z"
         transform="matrix(-0.00887964,0.03313927,0.03313926,0.00887964,109.94773,1037.6647)" />
    </g>
  </g>
</svg>
